<?xml version="1.0" standalone="no"?>
<!DOCTYPE svg PUBLIC "-//W3C//DTD SVG 20010904//EN"
 "http://www.w3.org/TR/2001/REC-SVG-20010904/DTD/svg10.dtd">
<svg version="1.0" xmlns="http://www.w3.org/2000/svg"
 width="704.000000pt" height="704.000000pt" viewBox="0 0 704.000000 704.000000"
 preserveAspectRatio="xMidYMid meet">
<metadata>
Created by potrace 1.14, written by Peter Selinger 2001-2017
</metadata>
<g transform="translate(0.000000,704.000000) scale(0.100000,-0.100000)"
fill="#000000" stroke="none">
<path d="M3200 6641 c0 -3 -93 -6 -208 -7 -238 -1 -479 -10 -752 -29 -58 -4
-127 -9 -154 -10 -45 -3 -138 -11 -241 -20 -242 -23 -269 -26 -295 -30 -14 -2
-56 -7 -95 -11 -38 -3 -77 -8 -85 -9 -8 -1 -40 -6 -70 -10 -120 -15 -179 -27
-270 -57 -75 -24 -288 -126 -310 -148 -3 -3 -30 -24 -60 -47 -68 -51 -154
-135 -206 -199 -21 -27 -42 -50 -46 -52 -5 -2 -8 -10 -8 -17 0 -7 -3 -15 -8
-17 -9 -4 -80 -126 -109 -188 -40 -86 -98 -260 -87 -260 3 0 0 -8 -5 -18 -15
-28 -36 -233 -31 -307 1 -11 1 -26 1 -32 -3 -86 -3 -115 2 -120 4 -3 2 -13 -3
-22 -5 -10 -5 -23 0 -31 4 -7 4 -24 0 -36 -6 -14 -5 -26 0 -29 5 -3 5 -18 0
-34 -4 -16 -6 -32 -3 -34 7 -7 8 -106 1 -113 -4 -3 -2 -18 2 -34 4 -16 6 -31
2 -34 -7 -8 -5 -112 2 -125 4 -5 2 -12 -3 -15 -6 -4 -6 -18 -1 -36 5 -17 5
-32 0 -35 -5 -3 -6 -15 0 -29 4 -12 4 -29 0 -36 -5 -8 -6 -18 -3 -23 7 -12 7
-106 0 -113 -3 -3 -1 -18 3 -34 4 -16 6 -31 3 -34 -8 -7 -7 -105 1 -113 3 -3
1 -13 -4 -22 -5 -10 -5 -23 0 -31 4 -7 4 -24 0 -36 -6 -14 -5 -26 0 -29 5 -3
5 -18 0 -34 -4 -16 -6 -32 -3 -34 7 -7 8 -106 1 -113 -4 -3 -2 -18 2 -34 4
-16 6 -31 2 -34 -7 -8 -5 -112 2 -125 4 -5 2 -12 -3 -15 -6 -4 -6 -18 -1 -36
5 -17 5 -32 0 -35 -5 -3 -6 -15 0 -29 4 -12 4 -29 0 -36 -5 -8 -6 -18 -3 -23
7 -12 7 -106 0 -113 -3 -3 -1 -19 3 -35 5 -17 5 -31 -1 -35 -5 -3 -7 -9 -5
-13 3 -4 7 -41 10 -82 10 -157 57 -331 128 -477 43 -88 115 -205 129 -210 5
-2 9 -7 9 -12 0 -8 43 -59 100 -119 35 -37 156 -141 164 -141 3 0 28 -16 55
-35 46 -33 189 -105 202 -102 3 1 12 -3 20 -10 8 -6 59 -23 114 -37 93 -24
159 -35 295 -51 30 -3 66 -8 80 -10 14 -2 50 -7 80 -10 30 -4 56 -8 57 -9 2
-2 3 -39 4 -140 0 -38 2 -73 5 -78 3 -4 2 -8 -3 -8 -4 0 -7 -57 -5 -127 2 -71
3 -144 2 -163 -1 -19 -2 -42 -1 -50 3 -48 0 -133 -4 -140 -3 -5 -1 -11 5 -15
6 -4 8 -10 6 -14 -6 -9 -7 -49 -7 -196 1 -201 2 -238 7 -247 3 -4 1 -8 -3 -8
-14 0 4 -173 22 -207 20 -40 69 -87 115 -111 47 -25 151 -23 204 3 25 12 266
245 663 642 343 343 628 621 633 618 12 -8 106 -25 168 -30 158 -15 219 -19
412 -30 278 -15 340 -17 767 -24 30 -1 79 -47 492 -460 284 -284 475 -467 498
-478 25 -12 60 -18 103 -18 128 1 219 80 236 205 7 57 7 198 -1 210 -4 6 -3
10 2 10 4 0 7 21 5 47 -1 27 -2 73 -1 103 0 30 0 69 -1 85 -1 17 -2 37 -1 45
1 8 1 31 0 50 -1 19 -1 42 0 50 0 8 0 54 1 103 0 62 3 89 12 92 7 2 47 6 88 9
83 6 87 7 179 31 57 14 228 89 241 104 3 3 24 19 48 35 60 41 142 120 197 191
44 56 122 200 139 255 5 14 10 30 12 35 16 46 35 150 39 212 3 42 7 79 10 82
2 4 0 13 -5 21 -5 8 -5 21 0 30 5 9 5 22 0 30 -4 7 -4 24 0 36 6 14 5 26 0 29
-5 3 -5 18 0 34 4 16 6 32 3 34 -7 7 -8 106 -1 113 4 3 2 18 -2 34 -4 16 -6
31 -2 34 7 8 5 112 -2 125 -4 5 -2 12 3 15 6 4 6 18 1 36 -5 17 -5 32 0 35 5
3 6 15 0 29 -4 12 -4 29 0 36 5 8 6 18 3 23 -7 12 -7 106 0 113 3 3 1 18 -3
34 -4 16 -6 31 -3 34 8 7 7 105 -1 113 -3 3 -1 13 4 22 5 10 5 23 0 31 -4 7
-4 24 0 36 6 14 5 26 0 29 -5 3 -5 18 -1 33 4 15 5 38 1 52 -3 14 -4 36 0 50
3 14 3 39 -1 56 -3 18 -3 38 2 45 4 7 5 17 3 21 -3 5 -7 37 -9 72 -2 36 -6 77
-9 93 -3 15 -7 39 -10 53 -9 56 -65 200 -99 255 -21 35 -71 110 -82 123 -37
48 -160 161 -210 194 -33 21 -59 41 -58 43 1 3 -2 18 -7 35 -5 16 -6 30 -2 30
4 0 7 16 7 35 0 19 -3 35 -7 35 -4 0 -3 14 2 30 5 17 5 30 0 30 -5 0 -5 13 0
30 5 17 5 30 0 30 -5 0 -5 13 0 30 5 17 5 30 0 30 -5 0 -5 13 0 30 5 17 5 30
0 30 -5 0 -5 13 0 30 5 17 6 30 2 30 -4 0 -7 35 -7 78 0 42 -5 104 -12 137
-20 101 -22 109 -27 130 -16 72 -115 309 -136 325 -4 3 -9 12 -12 20 -9 26
-123 171 -175 225 -47 48 -109 102 -184 157 -37 28 -200 114 -254 135 -88 33
-242 70 -325 78 -14 1 -50 5 -80 9 -108 14 -126 16 -170 21 -25 2 -72 7 -105
10 -33 3 -76 8 -95 10 -19 3 -66 7 -105 10 -38 2 -88 6 -110 9 -36 4 -130 12
-280 22 -55 3 -218 12 -365 20 -175 9 -624 16 -670 11 -14 -2 -40 0 -57 4 -18
4 -33 4 -33 0z m137 -484 c38 1 79 2 93 3 70 2 593 -15 730 -25 229 -15 316
-22 410 -30 25 -2 79 -7 120 -10 78 -7 115 -11 190 -19 25 -3 72 -8 105 -11
33 -4 76 -8 95 -11 19 -3 49 -7 65 -8 138 -14 192 -26 284 -62 142 -55 268
-160 354 -293 36 -55 65 -108 72 -131 3 -9 17 -45 25 -65 19 -46 34 -145 34
-232 1 -40 3 -73 6 -73 3 0 3 -31 0 -70 -3 -38 -3 -70 0 -70 3 0 3 -30 0 -67
-3 -38 -9 -67 -15 -66 -18 3 -316 20 -480 28 -49 3 -224 7 -389 10 -164 2
-301 6 -303 9 -3 2 -18 0 -34 -4 -16 -5 -29 -5 -29 0 0 4 -15 4 -34 0 -19 -4
-40 -4 -47 1 -7 4 -17 6 -21 3 -4 -3 -108 -7 -230 -10 -123 -2 -261 -6 -308
-9 -228 -11 -310 -16 -370 -20 -36 -3 -99 -7 -140 -10 -146 -10 -213 -21 -299
-47 -58 -17 -199 -80 -226 -100 -144 -107 -216 -181 -290 -300 -30 -48 -55
-91 -55 -94 0 -3 -6 -20 -14 -37 -38 -85 -64 -189 -70 -275 -2 -29 -6 -55 -9
-58 -3 -4 -2 -16 3 -29 5 -13 6 -26 3 -29 -8 -8 -9 -76 -1 -76 4 0 3 -13 -2
-30 -5 -17 -5 -30 0 -30 5 0 5 -13 0 -30 -5 -17 -5 -30 0 -30 5 0 5 -13 0 -30
-5 -17 -5 -30 0 -30 5 0 5 -13 0 -30 -5 -17 -5 -30 0 -30 5 0 5 -13 0 -30 -5
-17 -5 -30 0 -30 5 0 5 -13 0 -30 -5 -17 -5 -30 0 -30 5 0 5 -13 0 -30 -5 -17
-5 -30 0 -30 5 0 5 -13 0 -30 -5 -17 -5 -30 0 -30 5 0 5 -13 0 -30 -5 -17 -5
-30 0 -30 5 0 5 -13 0 -30 -5 -17 -5 -30 0 -30 5 0 5 -13 0 -30 -5 -17 -5 -30
0 -30 5 0 5 -13 0 -30 -5 -17 -5 -30 0 -30 5 0 5 -13 0 -30 -5 -17 -5 -30 0
-30 5 0 5 -13 0 -30 -5 -17 -5 -30 0 -30 5 0 5 -13 0 -30 -5 -17 -5 -30 0 -30
5 0 5 -13 0 -30 -5 -17 -5 -30 0 -30 5 0 5 -13 0 -30 -5 -17 -5 -30 0 -30 5 0
5 -13 0 -30 -5 -17 -5 -30 0 -30 5 0 5 -13 0 -30 -5 -17 -5 -30 0 -30 5 0 5
-13 0 -30 -5 -17 -5 -30 0 -30 5 0 5 -13 0 -30 -5 -16 -6 -30 -2 -30 4 0 7
-23 6 -50 -2 -106 34 -260 86 -370 36 -76 48 -95 103 -170 l54 -73 -359 -360
c-198 -197 -361 -357 -364 -355 -3 4 -5 50 -3 98 0 8 0 24 -1 35 0 11 0 50 1
87 0 37 -2 72 -6 78 -3 5 -2 10 4 10 6 0 6 11 1 30 -5 17 -5 32 0 35 5 3 6 15
0 29 -4 12 -4 29 0 36 5 8 6 18 3 24 -3 5 -5 32 -4 60 2 71 2 69 2 91 -2 33
-2 159 -2 173 1 6 1 19 1 27 0 8 0 22 0 30 0 8 0 21 0 28 2 37 -10 112 -21
140 -31 76 -112 132 -204 142 -87 10 -118 13 -180 19 -62 7 -209 23 -280 32
-240 29 -388 95 -519 230 -65 66 -153 197 -171 254 -3 8 -16 43 -25 65 -11 27
-31 130 -35 176 -2 21 -6 42 -8 47 -3 4 -2 14 2 21 5 7 5 28 1 47 -4 19 -4 36
0 39 4 3 4 20 0 39 -4 19 -4 40 0 46 4 7 4 26 0 41 -5 16 -5 31 0 34 4 3 4 20
0 39 -4 19 -4 40 0 46 4 7 4 26 0 41 -5 16 -5 31 0 34 4 3 4 20 0 39 -4 19 -4
40 0 46 4 7 4 25 0 41 -5 15 -6 30 -2 33 7 8 5 123 -3 136 -3 5 -2 10 4 10 6
0 6 11 1 30 -5 17 -5 30 0 30 5 0 5 13 0 30 -5 17 -5 30 0 30 5 0 5 13 0 30
-5 17 -5 30 0 30 5 0 5 13 0 30 -5 17 -5 30 0 30 5 0 5 13 0 30 -5 17 -5 30 0
30 5 0 5 13 0 30 -5 17 -5 30 0 30 5 0 5 13 0 30 -5 17 -5 30 0 30 5 0 5 13 0
30 -5 17 -5 30 0 30 5 0 5 13 0 30 -5 17 -5 30 0 30 5 0 5 13 0 30 -5 17 -5
30 0 30 5 0 5 13 0 30 -5 17 -5 30 0 30 5 0 5 13 0 30 -5 17 -5 30 0 30 5 0 5
13 0 30 -5 17 -5 30 0 30 5 0 5 13 0 30 -5 17 -5 30 0 30 5 0 5 13 0 30 -5 17
-5 30 0 30 5 0 5 13 0 30 -5 17 -5 30 0 30 5 0 5 13 0 30 -5 17 -5 32 0 35 5
3 6 15 0 29 -4 12 -4 29 0 36 5 8 6 18 3 23 -5 8 -5 35 -2 120 0 6 0 21 -1 32
-3 47 9 165 24 230 31 132 124 297 215 384 120 113 260 186 396 206 11 2 20 4
20 5 0 2 33 7 110 15 33 3 71 7 85 10 14 2 57 7 95 10 39 4 84 9 100 11 17 2
55 6 85 9 30 3 73 8 95 10 61 7 251 22 375 30 330 20 359 21 720 29 162 4 296
9 299 12 3 3 7 2 8 -3 2 -4 33 -7 70 -6z m1281 -1677 c21 4 47 3 58 0 10 -4
26 -4 35 1 8 4 21 4 28 0 7 -5 27 -5 45 -1 17 3 43 3 58 -1 16 -4 30 -3 34 2
3 5 10 6 16 3 5 -3 92 -8 191 -10 191 -3 364 -10 507 -19 47 -3 121 -8 165
-10 254 -15 305 -23 380 -56 145 -66 256 -232 259 -386 1 -29 4 -53 8 -53 4 0
3 -13 -2 -29 -4 -15 -4 -34 0 -42 5 -7 5 -20 0 -29 -5 -9 -5 -22 0 -30 5 -8 5
-21 0 -30 -5 -9 -5 -22 0 -30 5 -8 5 -21 0 -30 -5 -9 -5 -22 0 -30 5 -8 5 -21
0 -30 -5 -9 -5 -22 0 -30 5 -8 5 -21 0 -30 -5 -9 -5 -22 0 -30 5 -8 5 -21 0
-30 -5 -9 -5 -22 0 -30 5 -8 5 -21 0 -30 -5 -9 -5 -22 0 -30 5 -8 5 -21 0 -30
-5 -9 -5 -22 0 -30 5 -8 5 -21 0 -30 -5 -9 -5 -22 0 -30 5 -8 5 -21 0 -30 -5
-9 -5 -22 0 -29 4 -8 4 -27 0 -42 -5 -16 -5 -29 0 -29 5 0 5 -13 0 -30 -5 -17
-5 -30 0 -30 5 0 5 -13 0 -30 -5 -17 -5 -30 0 -30 5 0 5 -13 0 -30 -5 -17 -5
-30 0 -30 5 0 5 -13 0 -30 -5 -17 -5 -30 0 -30 5 0 5 -13 0 -30 -5 -17 -5 -30
0 -30 5 0 5 -13 0 -30 -5 -17 -5 -30 0 -30 5 0 5 -13 0 -30 -5 -17 -5 -30 0
-30 5 0 5 -13 0 -30 -5 -17 -5 -30 0 -30 5 0 5 -13 0 -30 -5 -16 -6 -30 -2
-30 16 0 -2 -171 -24 -232 -55 -157 -195 -275 -359 -303 -19 -4 -96 -9 -275
-21 -161 -10 -202 -30 -267 -129 -26 -39 -28 -50 -33 -190 -2 -34 -2 -222 -1
-245 2 -33 0 -74 -3 -78 -3 -2 -133 124 -289 281 -157 157 -300 292 -319 302
-35 17 -127 29 -198 25 -94 -5 -704 17 -965 36 -33 2 -96 6 -140 9 -169 11
-263 49 -353 143 -89 93 -122 178 -128 322 -2 52 -6 100 -8 107 -3 7 -1 15 3
18 5 3 5 21 1 40 -4 19 -4 37 0 40 4 3 5 20 1 37 -4 18 -6 42 -5 53 2 21 4 58
4 98 0 12 2 31 3 41 2 11 1 37 -3 58 -4 21 -3 41 1 44 5 3 7 10 3 15 -3 6 -5
65 -5 132 1 67 2 130 2 140 -1 9 -1 27 -1 40 0 12 1 33 3 47 2 14 0 36 -4 50
-3 14 -3 34 1 45 4 11 4 32 -1 47 -4 15 -4 30 1 33 4 3 4 21 0 40 -4 19 -4 37
0 40 4 3 4 20 0 39 -4 19 -4 39 0 46 4 6 4 29 0 50 -4 22 -5 41 -3 44 3 2 6
33 7 68 5 114 53 217 140 301 50 48 141 102 187 111 13 2 35 7 49 10 14 3 66
8 115 11 50 3 113 8 140 10 151 12 407 23 678 29 115 3 212 7 215 11 4 3 8 2
10 -3 1 -5 20 -6 40 -2z"/>
</g>
</svg>
